# File created by Blade
# Date/Time:  Tue Jan 27 17:09:01 2015
#---------------------------------------------------------
:version 1.10
:name HOM
:units
  mass 1.0
  length 1.000000
  angle deg
:documentation
     Acclaim Skeleton File
:root
   axis xyz
   order TX TY TZ RX RY RZ
   position 0.000000 0.000000 0.000000
   orientation 0 0 0
:bonedata
   begin
      id 1
      name Spine_dum
      direction 0.000000 1.000000 0.000000
      length 7.539951
      axis 0.0 0.0 0.0 xyz
   end
   begin
      id 2
      name LeftUpLeg_dum
      direction 1.000000 0.000000 0.000000
      length 3.345476
      axis 0.0 0.0 0.0 xyz
   end
   begin
      id 3
      name RightUpLeg_dum
      direction -1.000000 0.000000 0.000000
      length 3.345476
      axis 0.0 0.0 0.0 xyz
   end
   begin
      id 4
      name Spine
      direction 0.000000 1.000000 0.000000
      length 0.000000
      axis 0.0 0.0 0.0 xyz
      dof rx ry rz
   end
   begin
      id 5
      name Spine_dum1
      direction 0.000000 1.000000 0.000000
      length 15.093809
      axis 0.0 0.0 0.0 xyz
   end
   begin
      id 6
      name Spine_dum2
      direction 0.000000 1.000000 0.000000
      length 9.738928
      axis 0.0 0.0 0.0 xyz
   end
   begin
      id 7
      name Spine_dum3
      direction 0.000000 1.000000 0.000000
      length 9.738928
      axis 0.0 0.0 0.0 xyz
   end
   begin
      id 8
      name Head
      direction 0.000000 1.000000 0.000000
      length 4.527550
      axis 0.0 0.0 0.0 xyz
      dof rx ry rz
   end
   begin
      id 9
      name LeftShoulder
      direction 1.000000 0.000000 0.000000
      length 7.084015
      axis 0.0 0.0 -90.0 xyz
      dof rx ry rz
   end
   begin
      id 10
      name LeftArm
      direction 1.000000 0.000000 0.000000
      length 10.259319
      axis 0.0 0.0 -90.0 xyz
      dof rx ry rz
   end
   begin
      id 11
      name LeftForeArm
      direction 1.000000 0.000000 0.000000
      length 9.896984
      axis 0.0 0.0 -90.0 xyz
      dof ry rz rx
   end
   begin
      id 12
      name LeftHand
      direction 0.000000 0.000000 0.000000
      length 0.000000
      axis 0.0 0.0 -90.0 xyz
      dof rx ry rz
   end
   begin
      id 13
      name LeftHand_dum1
      direction 0.000000 0.000000 0.000000
      length 0.000000
      axis 0.0 0.0 -90.0 xyz
   end
   begin
      id 14
      name LeftHand_dum2
      direction 1.000000 0.000000 0.000000
      length 3.937000
      axis 0.0 0.0 -90.0 xyz
   end
   begin
      id 15
      name LeftHandThumb1
      direction 0.000000 0.000000 1.000000
      length 3.937000
      axis 0.0 0.0 -90.0 xyz
      dof rx rz ry
   end
   begin
      id 16
      name RightShoulder
      direction -1.000000 0.000000 0.000000
      length 7.084015
      axis 0.0 0.0 90.0 xyz
      dof rx ry rz
   end
   begin
      id 17
      name RightArm
      direction -1.000000 0.000000 0.000000
      length 10.259319
      axis 0.0 0.0 90.0 xyz
      dof rx ry rz
   end
   begin
      id 18
      name RightForeArm
      direction -1.000000 0.000000 0.000000
      length 9.896984
      axis 0.0 0.0 90.0 xyz
      dof ry rz rx
   end
   begin
      id 19
      name RightHand
      direction 0.000000 0.000000 0.000000
      length 0.000000
      axis 0.0 0.0 90.0 xyz
      dof rx ry rz
   end
   begin
      id 20
      name RightHand_dum1
      direction 0.000000 0.000000 0.000000
      length 0.000000
      axis 0.0 0.0 90.0 xyz
   end
   begin
      id 21
      name RightHand_dum2
      direction -1.000000 0.000000 0.000000
      length 3.937000
      axis 0.0 0.0 90.0 xyz
   end
   begin
      id 22
      name RightHandThumb1
      direction 0.000000 0.000000 1.000000
      length 3.937000
      axis 0.0 0.0 90.0 xyz
      dof rx rz ry
   end
   begin
      id 23
      name LeftUpLeg
      direction 0.000000 -1.000000 0.000000
      length 19.114733
      axis 0.0 0.0 0.0 xyz
      dof rx ry rz
   end
   begin
      id 24
      name LeftLeg
      direction 0.000000 -1.000000 0.000000
      length 16.045604
      axis 0.0 0.0 0.0 xyz
      dof rx ry rz
   end
   begin
      id 25
      name LeftFoot
      direction 0.000000 -0.258819 0.965926
      length 5.543155
      axis 15.0 0.0 0.0 xyz
      dof rx ry rz
   end
   begin
      id 26
      name LeftToeBase
      direction 0.000000 0.000000 1.000000
      length 2.952750
      axis 0.0 0.0 0.0 xyz
      dof rx ry rz
   end
   begin
      id 27
      name RightUpLeg
      direction 0.000000 -1.000000 0.000000
      length 19.114733
      axis 0.0 0.0 0.0 xyz
      dof rx ry rz
   end
   begin
      id 28
      name RightLeg
      direction 0.000000 -1.000000 0.000000
      length 16.045604
      axis 0.0 0.0 0.0 xyz
      dof rx ry rz
   end
   begin
      id 29
      name RightFoot
      direction 0.000000 -0.258819 0.965926
      length 5.543155
      axis 15.0 0.0 0.0 xyz
      dof rx ry rz
   end
   begin
      id 30
      name RightToeBase
      direction 0.000000 0.000000 1.000000
      length 2.952750
      axis 0.0 0.0 0.0 xyz
      dof rx ry rz
   end
:hierarchy
   begin
      root Spine_dum LeftUpLeg_dum RightUpLeg_dum
      Spine_dum Spine
      LeftUpLeg_dum LeftUpLeg
      RightUpLeg_dum RightUpLeg
      Spine Spine_dum1 Spine_dum2 Spine_dum3
      Spine_dum1 Head
      Spine_dum2 LeftShoulder
      Spine_dum3 RightShoulder
      LeftShoulder LeftArm
      LeftArm LeftForeArm
      LeftForeArm LeftHand
      LeftHand LeftHand_dum1 LeftHand_dum2
      LeftHand_dum1 LeftHandThumb1
      RightShoulder RightArm
      RightArm RightForeArm
      RightForeArm RightHand
      RightHand RightHand_dum1 RightHand_dum2
      RightHand_dum1 RightHandThumb1
      LeftUpLeg LeftLeg
      LeftLeg LeftFoot
      LeftFoot LeftToeBase
      RightUpLeg RightLeg
      RightLeg RightFoot
      RightFoot RightToeBase
   end

# File created by Blade
# Date/Time:  Tue Jan 27 17:08:52 2015
# Frame Rate: 120.000 fps
#------------------------------------------------------
:FULLY-SPECIFIED
:DEGREES
1485
root 5.099830 36.562998 -2.906156 -3.189262 3.475292 -6.455801
Spine 14.013655 13.864440 23.569631
Head -1.042020 -8.501723 -19.275631
LeftShoulder -7.243346 -7.102669 -3.696966
LeftArm -3.445580 -5.004553 -52.911922
LeftForeArm 7.491160 -0.000000 118.358513
LeftHand -13.296198 0.000000 31.677096
LeftHandThumb1 -26.253704 0.000000 33.147579
RightShoulder 4.362460 -20.403259 -10.220115
RightArm 9.905628 0.185736 66.300401
RightForeArm 233.241793 -0.000000 29.723539
RightHand -0.574458 -0.000000 -5.192828
RightHandThumb1 -24.326973 -0.000000 -32.862282
LeftUpLeg -9.653327 13.829838 0.216867
LeftLeg 28.886606 -0.000000 -0.000000
LeftFoot -25.423421 16.276279 -3.641451
LeftToeBase 11.484746 -0.000000 -0.000000
RightUpLeg -88.951281 -11.817657 26.334247
RightLeg 114.062658 -0.000000 -0.000000
RightFoot -4.601031 -7.167552 13.088840
RightToeBase 6.300286 -0.000000 -0.000000
1486
root 5.073874 36.580634 -2.909357 -3.219727 3.604828 -6.557374
Spine 13.975151 13.788426 23.693314
Head -1.080845 -8.568609 -19.165942
LeftShoulder -7.196385 -7.074923 -3.647000
LeftArm -3.402993 -4.892784 -52.961202
LeftForeArm 7.481898 -0.000000 118.223813
LeftHand -13.277045 0.000000 31.782289
LeftHandThumb1 -26.253704 0.000000 33.147579
RightShoulder 4.311575 -20.420423 -10.214875
RightArm 9.847017 0.019987 66.451828
RightForeArm 233.226191 -0.000000 29.600581
RightHand -0.663383 -0.000000 -4.966211
RightHandThumb1 -24.326973 -0.000000 -32.862282
LeftUpLeg -9.593138 13.697267 0.362516
LeftLeg 28.765203 -0.000000 -0.000000
LeftFoot -25.324308 16.226125 -3.660253
LeftToeBase 11.445829 -0.000000 -0.000000
RightUpLeg -88.516558 -11.578348 24.475156
RightLeg 113.871582 -0.000000 -0.000000
RightFoot -3.898419 -5.628777 12.614658
RightToeBase 6.312710 -0.000000 -0.000000
1487
root 5.040336 36.600462 -2.909674 -3.284887 3.734985 -6.716864
Spine 13.990896 13.676644 23.872424
Head -1.212454 -8.658631 -19.074597
LeftShoulder -7.183956 -7.140334 -3.596809
LeftArm -3.402321 -4.722663 -52.990827
LeftForeArm 7.491954 -0.000000 118.096098
LeftHand -13.243165 -0.000000 31.953758
LeftHandThumb1 -26.253704 0.000000 33.147579
RightShoulder 4.256350 -20.397694 -10.199557
RightArm 9.799229 -0.135658 66.586250
RightForeArm 233.237667 0.000000 29.459551
RightHand -0.654812 -0.000000 -4.926508
RightHandThumb1 -24.326973 -0.000000 -32.862282
LeftUpLeg -9.499765 13.609449 0.588378
LeftLeg 28.649289 -0.000000 -0.000000
LeftFoot -25.264987 16.131850 -3.687930
LeftToeBase 11.508121 -0.000000 -0.000000
RightUpLeg -88.031420 -11.299341 22.661556
RightLeg 113.679957 -0.000000 -0.000000
RightFoot -3.213188 -4.238480 11.881906
RightToeBase 6.321361 -0.000000 -0.000000
1488
root 5.014341 36.619690 -2.908316 -3.358698 3.894573 -6.805666
Spine 14.004188 13.549826 23.967683
Head -1.296407 -8.676984 -18.885933
LeftShoulder -7.134566 -7.201526 -3.535598
LeftArm -3.429510 -4.594005 -53.028466
LeftForeArm 7.522788 0.000000 117.978026
LeftHand -13.235529 -0.000000 32.028220
LeftHandThumb1 -26.253704 0.000000 33.147579
RightShoulder 4.171016 -20.404957 -10.147878
RightArm 9.780396 -0.275393 66.679109
RightForeArm 232.986432 -0.000000 29.300118
RightHand -0.788734 -0.000000 -4.918082
RightHandThumb1 -24.326973 -0.000000 -32.862282
LeftUpLeg -9.376496 13.455162 0.725950
LeftLeg 28.491469 -0.000000 -0.000000
LeftFoot -25.135861 16.125572 -3.648580
LeftToeBase 11.464386 -0.000000 -0.000000
RightUpLeg -87.585348 -11.056305 20.804503
RightLeg 113.478850 -0.000000 -0.000000
RightFoot -2.413155 -2.999026 11.173903
RightToeBase 6.316378 -0.000000 -0.000000
1489
root 4.985117 36.637662 -2.912222 -3.392837 4.056121 -6.881167
Spine 13.972775 13.458536 24.020399
Head -1.359476 -8.719765 -18.681661
LeftShoulder -7.057188 -7.179482 -3.454091
LeftArm -3.392642 -4.504781 -53.087001
LeftForeArm 7.552887 -0.000000 117.847783
LeftHand -13.219526 0.000000 32.192829
LeftHandThumb1 -26.253704 0.000000 33.147579
RightShoulder 4.076658 -20.437906 -10.072126
RightArm 9.803570 -0.405244 66.779724
RightForeArm 232.964022 -0.000000 29.179939
RightHand -0.615255 0.000000 -4.850128
RightHandThumb1 -24.326973 -0.000000 -32.862282
LeftUpLeg -9.308842 13.266773 0.842493
LeftLeg 28.347908 -0.000000 -0.000000
LeftFoot -25.037983 16.105352 -3.669477
LeftToeBase 11.500110 -0.000000 -0.000000
RightUpLeg -87.179033 -10.750174 18.926346
RightLeg 113.254458 -0.000000 -0.000000
RightFoot -1.594278 -1.889567 10.414100
RightToeBase 6.250822 -0.000000 -0.000000
1490
root 4.945908 36.660942 -2.914211 -3.457040 4.217420 -7.067244
Spine 13.973136 13.301198 24.192944
Head -1.487564 -8.735970 -18.492330
LeftShoulder -6.976548 -7.203110 -3.370241
LeftArm -3.473968 -4.453828 -53.167577
LeftForeArm 7.579404 -0.000000 117.759302
LeftHand -13.162937 -0.000000 32.200797
LeftHandThumb1 -26.253704 0.000000 33.147579
RightShoulder 4.028473 -20.441128 -10.007512
RightArm 9.806676 -0.525005 66.845437
RightForeArm 232.843814 -0.000000 29.045918
RightHand -0.587744 -0.000000 -4.816480
RightHandThumb1 -24.326973 -0.000000 -32.862282
LeftUpLeg -9.225619 13.125495 1.091498
LeftLeg 28.218183 -0.000000 -0.000000
LeftFoot -24.921391 16.086632 -3.622734
LeftToeBase 11.497760 -0.000000 -0.000000
RightUpLeg -86.747998 -10.408765 17.243104
RightLeg 112.978092 -0.000000 -0.000000
RightFoot -0.904434 -1.273248 9.091027
RightToeBase 7.310203 -0.000000 -0.000000
1491
root 4.914285 36.683405 -2.917828 -3.513353 4.390474 -7.190614
Spine 13.962477 13.144030 24.304941
Head -1.573106 -8.764554 -18.321938
LeftShoulder -6.888296 -7.192420 -3.303631
LeftArm -3.515808 -4.407017 -53.232714
LeftForeArm 7.593629 -0.000000 117.649606
LeftHand -13.085628 0.000000 32.232611
LeftHandThumb1 -26.253704 0.000000 33.147579
RightShoulder 3.994865 -20.453864 -9.957219
RightArm 9.814798 -0.614365 66.913283
RightForeArm 232.644971 -0.000000 28.902820
RightHand -0.551154 -0.000000 -4.788409
RightHandThumb1 -24.326973 -0.000000 -32.862282
LeftUpLeg -9.139408 12.930713 1.258936
LeftLeg 28.062900 -0.000000 -0.000000
LeftFoot -24.782840 16.102956 -3.574538
LeftToeBase 11.505673 -0.000000 -0.000000
RightUpLeg -86.349647 -10.079208 15.544493
RightLeg 112.692255 -0.000000 -0.000000
RightFoot 0.073161 -0.822156 8.980060
RightToeBase 6.666846 -0.000000 -0.000000
1492
root 4.873087 36.707809 -2.919597 -3.589238 4.562212 -7.378277
Spine 13.974308 12.958528 24.469229
Head -1.664432 -8.750534 -18.094513
LeftShoulder -6.837059 -7.214158 -3.243670
LeftArm -3.546556 -4.347903 -53.282633
LeftForeArm 7.638569 -0.000000 117.538969
LeftHand -13.039834 0.000000 32.196593
LeftHandThumb1 -26.253704 0.000000 33.147579
RightShoulder 3.957665 -20.434499 -9.903180
RightArm 9.816623 -0.747243 66.978044
RightForeArm 232.450106 -0.000000 28.802364
RightHand -0.513795 -0.000000 -4.583463
RightHandThumb1 -24.326973 -0.000000 -32.862282
LeftUpLeg -9.040205 12.751491 1.513531
LeftLeg 27.917390 -0.000000 -0.000000
LeftFoot -24.686744 16.074345 -3.551401
LeftToeBase 11.554345 -0.000000 -0.000000
RightUpLeg -85.928258 -9.713527 13.945836
RightLeg 112.381265 -0.000000 -0.000000
RightFoot 0.964879 -0.599156 8.567081
RightToeBase 6.516225 -0.000000 -0.000000
1493
root 4.827174 36.734356 -2.919990 -3.671873 4.722267 -7.623241
Spine 13.983334 12.781262 24.691717
Head -1.743152 -8.778324 -17.902901
LeftShoulder -6.792728 -7.169892 -3.165894
LeftArm -3.522830 -4.293133 -53.375267
LeftForeArm 7.688828 -0.000000 117.410301
LeftHand -12.999171 -0.000000 32.298167
LeftHandThumb1 -26.253704 0.000000 33.147579
RightShoulder 3.916015 -20.437061 -9.835689
RightArm 9.822808 -0.872920 67.004001
RightForeArm 232.025723 -0.000000 28.670204
RightHand -0.573197 -0.000000 -4.543248
RightHandThumb1 -24.326973 -0.000000 -32.862282
LeftUpLeg -8.936362 12.616897 1.833780
LeftLeg 27.769279 -0.000000 -0.000000
LeftFoot -24.568192 16.057596 -3.447216
LeftToeBase 11.519490 -0.000000 -0.000000
RightUpLeg -85.511132 -9.336050 12.534087
RightLeg 112.016488 -0.000000 -0.000000
RightFoot 1.761852 -0.852485 8.127082
RightToeBase 6.530150 -0.000000 -0.000000
1494
root 4.787152 36.758873 -2.922534 -3.721211 4.880834 -7.800540
Spine 13.978037 12.620451 24.831562
Head -1.873461 -8.845181 -17.727435
LeftShoulder -6.797536 -7.131037 -3.069196
LeftArm -3.445389 -4.201499 -53.475514
LeftForeArm 7.716574 -0.000000 117.248409
LeftHand -12.947429 -0.000000 32.423477
LeftHandThumb1 -26.253704 0.000000 33.147579
RightShoulder 3.842733 -20.411269 -9.752488
RightArm 9.822932 -0.999268 67.040098
RightForeArm 231.746127 0.000000 28.584785
RightHand -0.604298 -0.000000 -4.316812
RightHandThumb1 -24.326973 -0.000000 -32.862282
LeftUpLeg -8.844323 12.387839 2.060819
LeftLeg 27.581417 -0.000000 -0.000000
LeftFoot -24.415703 16.094920 -3.346403
LeftToeBase 11.461683 -0.000000 -0.000000
RightUpLeg -85.167320 -8.961976 11.174480
RightLeg 111.634296 -0.000000 -0.000000
RightFoot 2.550502 -1.486885 7.715625
RightToeBase 6.669182 -0.000000 -0.000000
